PathFileType	4	(X/Y/Z)	32_2_13_p0_0-362.trc
DataRate	CameraRate	NumFrames	NumMarkers	Units	OrigDataRate	OrigDataStartFrame	OrigNumFrames
59.0	59.0	4	27	m	59.0	0	363
Frame#	Time	RHip			RKnee			RAnkle			RBigToe			RSmallToe			RHeel			LHip			LKnee			LAnkle			LBigToe			LSmallToe			LHeel			Neck			Head			Nose			RShoulder			RElbow			RWrist			RThumb			RIndex			RPinky			LShoulder			LElbow			LWrist			LThumb			LIndex			LPinky			
		X1	Y1	Z1	X2	Y2	Z2	X3	Y3	Z3	X4	Y4	Z4	X5	Y5	Z5	X6	Y6	Z6	X7	Y7	Z7	X8	Y8	Z8	X9	Y9	Z9	X10	Y10	Z10	X11	Y11	Z11	X12	Y12	Z12	X13	Y13	Z13	X14	Y14	Z14	X15	Y15	Z15	X16	Y16	Z16	X17	Y17	Z17	X18	Y18	Z18	X19	Y19	Z19	X20	Y20	Z20	X21	Y21	Z21	X22	Y22	Z22	X23	Y23	Z23	X24	Y24	Z24	X25	Y25	Z25	X26	Y26	Z26	X27	Y27	Z27	
0	0.0	0.32595807953384615	0.4835149485122778	1.0834798827933592	0.32333733375048046	0.48862214457234354	1.4949007812521247	0.32264349669368186	0.47977982957654364	1.8997746051208098	0.30485468234303664	0.33876590558498243	1.9215069854152211	0.36732467962244836	0.34211621560078637	1.920011223353623	0.3002303853165882	0.5815920096410871	2.006799880094456	0.136953691821747	0.48491032820060204	1.086655577427947	0.13833396999561337	0.5002172302294758	1.4997887966093155	0.13728913842325943	0.509122355193272	1.9459733086460997	0.15777972036475219	0.3320526736559556	1.9270447830995068	0.10763922353462403	0.36688061489847135	1.9321952435529912	0.15737367264220126	0.5433421287882441	1.9948890280023204	0.24225668389347643	0.4565194685512021	0.4944544144285212	0.24136226755981374	0.45113832037744095	0.2551594580629922	0.22350703111080458	0.36947931842983966	0.36729282550852893	0.38812337793114643	0.44682111798693225	0.579212815108223	0.3993189382581135	0.366595059035835	0.8068625563411447	0.263428401297543	0.3190880607865149	1.0017340668242383	0.21409884050596886	0.3523111944050345	1.1345712280749987	0.20409488784735985	0.38317693140288894	1.1403984884875795	0.24433855588659295	0.3542806672182859	1.1165319767487507	0.0789315918992287	0.4530361786510521	0.5825909256833696	0.07924984740927762	0.41383271800945054	0.8247450435019631	0.20965676836719227	0.27328734513569514	0.9777917429265833	0.27795794423180953	0.307735148648188	1.0817119286358259	0.269579685138797	0.30964445833272797	1.1205733533982873	0.23636778947619871	0.31978182797308385	1.1245469158762307
1	0.01694915254237288	0.32712886887196196	0.4581431595261303	1.070738747738392	0.323268855957311	0.4885567324031929	1.4948594307870091	0.32560142758689997	0.4942508122167474	1.9037612715307974	0.3048263891125948	0.33842310448978674	1.9213312433053729	0.36734387525755874	0.34181516312751337	1.919787009377628	0.299623781699737	0.5832087642827116	2.0028960592742138	0.13749836952939967	0.4858520908662386	1.0919779419732754	0.1383921583752695	0.5001023459328863	1.4997483595087193	0.13728108310546028	0.5089251880537544	1.9458781494194763	0.15276826430771975	0.3285048040232106	1.9249369378990109	0.10762537113893085	0.36687327246943746	1.9319842437013475	0.15380724563543954	0.5329548483648417	1.9831576309864256	0.24218544895560928	0.4565334546086016	0.4945575869031048	0.23844491033609255	0.4269834873224144	0.25417923756938454	0.22325262831854611	0.36878667448622243	0.36388545407555817	0.3880043724523892	0.4471735149720418	0.5790643078235367	0.3992794400942031	0.3662788901363536	0.7992521150466989	0.2665830674511009	0.3284667902460961	1.0049429861130197	0.21027423953391647	0.34062816476702734	1.1317824722412906	0.20878555372350463	0.36764939529658885	1.1447295829471755	0.24523736535840643	0.3543962270399661	1.117117935636919	0.07891265266262763	0.45288537045217986	0.5827162404832992	0.0794254777216031	0.41344924175573955	0.8250940478431703	0.2122908187675206	0.28346603423493144	0.9810264853693235	0.271190654568461	0.2970003959595902	1.0818071294343956	0.2694048293344663	0.3085698537136064	1.120675794068288	0.23282383570801127	0.3085452088984419	1.1236386580456117
2	0.03389830508474576	0.3271805195215266	0.4579299745749915	1.0705041873181305	0.3223915043392984	0.48742411628101917	1.4901000382855345	0.3255077581118761	0.49405373478202363	1.9035268629364361	0.30570800610049226	0.33994571287557335	1.9259437816659213	0.36789968484086166	0.34360037803932536	1.9116007245517381	0.2995162878127343	0.5828849721726893	2.0027611109210404	0.13668196083076317	0.4845866490756376	1.0866088085769698	0.13832134127853576	0.50013248793893	1.499709583012123	0.13728671935869938	0.508937830011566	1.9459036462404558	0.15387177288392248	0.3280579829103781	1.9203056990414085	0.1076027517371229	0.3670516647760921	1.9319874533083843	0.15693222157275988	0.5449555720271805	1.9908893393418035	0.2421522789943502	0.4565149691184951	0.4945947528344894	0.24236669900785246	0.429519756606073	0.25425600608007415	0.22324362559135894	0.368740937413569	0.3638593849933342	0.38431493893372676	0.45967656836787796	0.5814462481795165	0.40026007714737827	0.36740749429906194	0.7999726872815216	0.27075614761638406	0.31554347998612153	1.0002583859061	0.21424635868698796	0.32703312199116297	1.1220984354233587	0.2184232580404713	0.3588391580007911	1.1370371558896712	0.24179011969898412	0.3510459314424407	1.111578025234122	0.07889064602564179	0.45282947183398364	0.5826971256567473	0.07941068507632708	0.4131280453265422	0.8249062626653675	0.21282286165318162	0.28338469657124393	0.9776909635379054	0.27520793725513554	0.29548728909140526	1.0771569038145714	0.26545139132455475	0.31904124252353144	1.1254059432538093	0.2310176931093203	0.3180155193892576	1.1228562852768966
3	0.05084745762711865	0.32293343522971646	0.47132666928608014	1.0754272039172375	0.32241759804018444	0.48747563292749096	1.4898784590490026	0.32204519986894065	0.48158249784970514	1.8956574843739176	0.3057714906938875	0.34004331914254554	1.9262013427832898	0.3683592379657952	0.3417555249689809	1.9152283861308308	0.29940706086575325	0.582652982460829	2.0026404093901116	0.13301001873438467	0.4844847234675406	1.091794144463391	0.13831643613803915	0.5001971342079436	1.4995389146263056	0.1417739960229959	0.5111184130374719	1.9468423612266912	0.1538026738636664	0.32793838104966705	1.9204313110335312	0.10870225565711109	0.36629344006165104	1.9278068940519308	0.15747037152235271	0.5432206294592872	1.994684678304567	0.2421749924333826	0.45646380160481853	0.49455561453674785	0.24237700913865895	0.4294638621077708	0.2540978640303063	0.22353360823075072	0.36931245742935553	0.36725154135021415	0.3880272384911696	0.4470582845681181	0.5791547965175571	0.3954356047275679	0.37935276149789676	0.8030509845631745	0.27064195732888063	0.31521932780147655	1.0002187924630168	0.21171011779931243	0.3236448581894658	1.1291287499992062	0.21844557017645147	0.35886835615797796	1.1371725789646603	0.24209883776248167	0.35159289407128796	1.1120508700606793	0.07888487522728366	0.45286625935671	0.5828036335749867	0.07991242465844983	0.41322357488874895	0.8221798722216188	0.21284370543298498	0.28352875495239044	0.9776578031306811	0.2698473246831721	0.29544612668776055	1.0764662617034675	0.2684783036502659	0.3056037432878581	1.1188581820095367	0.23550086614264332	0.318389856283874	1.1196876077331184
